<?xml version="1.0" standalone="no"?>
<!DOCTYPE svg PUBLIC "-//W3C//DTD SVG 1.1//EN" "http://www.w3.org/Graphics/SVG/1.1/DTD/svg11.dtd">
<svg xmlns="http://www.w3.org/2000/svg">
<metadata>Copyright (C) 2023 by original authors @ fontello.com</metadata>
<defs>
<font id="font-icon" horiz-adv-x="1000" >
<font-face font-family="font-icon" font-weight="400" font-stretch="normal" units-per-em="1000" ascent="850" descent="-150" />
<missing-glyph horiz-adv-x="1000" />
<glyph glyph-name="clock-1" unicode="&#xe800;" d="M0 349q0 188 134 322t322 134 321-134 133-322-133-321-321-133-322 133-134 321z m119 0q0-140 99-238t238-99 238 99 99 238-99 238-238 99-238-99-99-238z m172-69l0 117 117 0 0 213 117 0 0-330-234 0z" horiz-adv-x="910" />

<glyph glyph-name="home" unicode="&#xe801;" d="M417 17v250h166v-250h209v333h125l-417 375-417-375h125v-333h209z" horiz-adv-x="1000" />

<glyph glyph-name="library" unicode="&#xe802;" d="M167 590h-84v-608c0-23 9-45 25-61 15-17 37-26 59-26h583v87h-583v608z m666 173h-500c-22 0-43-9-59-25-15-16-24-39-24-62v-520c0-23 9-45 24-62 16-16 37-25 59-25h500c22 0 44 9 59 25 16 17 25 39 25 62v520c0 23-9 46-25 62-15 16-37 25-59 25z m-416-564h-84v87h84v-87z m0 174h-84v86h84v-86z m0 173h-84v87h84v-87z m416-347h-83v87h83v-87z m0 174h-83v86h83v-86z m0 173h-83v87h83v-87z" horiz-adv-x="1000" />

<glyph glyph-name="heart" unicode="&#xe803;" d="M500-77l-60 58c-215 202-357 336-357 500 0 134 101 239 230 239 72 0 142-35 187-90 45 55 115 90 188 90 128 0 229-105 229-239 0-164-142-298-357-500l-60-58z" horiz-adv-x="1000" />

<glyph glyph-name="file" unicode="&#xe804;" d="M917 503v-252c-37 22-79 35-125 35-138 0-250-117-250-261 0-14 1-29 3-43h-378c-46 0-84 39-84 87v521c0 48 37 86 84 86h250l83-86h333c46 0 84-39 84-87z m-209-608l209 130-209 131v-261z" horiz-adv-x="1000" />

<glyph glyph-name="setting" unicode="&#xe805;" d="M484 177c-37 0-73 16-99 45-27 28-42 67-42 107 0 41 15 79 42 108 26 28 62 44 99 44 38 0 74-16 100-44 27-29 42-67 42-108 0-40-15-79-42-107-26-29-62-45-100-45z m300 110c2 14 3 28 3 42 0 15-1 29-3 44l85 70c8 7 10 19 5 28l-80 150c-5 10-16 14-25 10l-101-44c-21 17-42 32-68 43l-15 115c-1 10-10 18-20 18h-161c-10 0-19-8-20-18l-15-115c-26-11-48-26-69-43l-100 44c-9 4-20 0-25-10l-80-150c-6-9-3-21 4-28l86-70c-2-15-3-29-3-44 0-14 1-28 3-42l-86-72c-7-6-10-18-4-28l80-150c5-9 16-13 25-9l100 43c21-17 43-32 69-43l15-115c1-10 10-18 20-18h161c10 0 19 8 20 18l15 115c26 12 47 26 68 43l101-43c9-4 20 0 25 9l80 150c5 10 3 22-5 28l-85 72z" horiz-adv-x="969" />

<glyph glyph-name="you-tube" unicode="&#xe806;" d="M807 517h-645v83h645v-83z m-80 250h-485v-84h485v84z m161-417v-333c0-22-8-44-24-59-15-16-35-25-57-25h-645c-22 0-42 9-58 25-15 15-23 37-23 59v333c0 22 8 43 23 59 16 16 36 24 58 24h645c22 0 42-8 57-24 16-16 24-37 24-59z m-242-167l-242 137v-272l242 135z" horiz-adv-x="969" />

<glyph glyph-name="clock" unicode="&#xe807;" d="M484 767c-53 0-105-11-154-32-49-21-94-52-131-90-76-78-118-184-118-295 0-110 42-216 118-295 37-38 82-69 131-90 49-21 101-32 154-32 107 0 210 44 286 122 76 79 118 185 118 295 0 55-10 109-31 159-20 51-50 97-87 136-38 38-82 69-131 90-49 21-102 32-155 32z m170-592l-210 133v250h61v-216l181-113-32-54z" horiz-adv-x="969" />

<glyph glyph-name="info" unicode="&#xe808;" d="M578 308h-89v250h89m0-416h-89v83h89m311 458h-711c-49 0-89-37-89-83v-750l178 167h622c49 0 89 37 89 83v500c0 46-40 83-89 83z" horiz-adv-x="1067" />

<glyph glyph-name="question" unicode="&#xe809;" d="M628 381l-38-38c-30-30-48-55-48-118h-84v21c0 46 19 88 49 118l52 52c15 15 24 36 24 59 0 46-37 83-83 83-22 0-43-8-59-24-16-16-24-37-24-59h-84c0 44 18 87 49 118 31 31 74 49 118 49 44 0 87-18 118-49 31-31 49-74 49-118 0-37-15-70-39-94z m-86-323h-84v84h84m-42 625c-55 0-109-11-159-32-51-21-97-52-136-90-78-78-122-184-122-295 0-110 44-216 122-295 39-38 85-69 136-90 50-21 104-32 159-32 111 0 217 44 295 122 78 79 122 185 122 295 0 230-188 417-417 417z" horiz-adv-x="1000" />

<glyph glyph-name="recently" unicode="&#xe80a;" d="M563 517h-63v-209l178-105 30 50-145 87v177z m-21 208c-100 0-195-39-265-110-71-70-110-165-110-265h-125l165-168 168 168h-125c0 77 31 152 85 206 55 55 129 86 207 86 77 0 151-31 206-86 55-54 85-129 85-206 0-77-30-151-85-206-55-55-129-86-206-86-81 0-154 33-206 86l-59-59c68-68 161-110 265-110 99 0 195 40 265 110 70 70 110 166 110 265 0 100-40 195-110 265-70 71-166 110-265 110z" horiz-adv-x="1000" />

<glyph glyph-name="video" unicode="&#xe80b;" d="M1171 481v285c0 22-8 42-24 58-15 15-36 24-58 24h-989c-22 0-43-9-58-24-16-16-25-36-25-58v-816c0-21 9-42 25-57 15-16 36-24 58-24h989c22 0 43 8 58 24 16 15 24 36 24 57v286l330-326v897l-330-326z m-247-204h-247v-245h-165v245h-247v163h247v245h165v-245h247v-163z" horiz-adv-x="1516" />

<glyph glyph-name="like" unicode="&#xe80c;" d="M961 438h-249l90 291c19 60-31 121-99 121-34 0-67-14-89-38l-345-374h-235v-588h235 59 554c63 0 117 39 129 95l79 353c16 73-46 140-129 140z m-692-529h-177v470h177v-470z m763 402l-78-353c-6-29-36-49-72-49h-554v506l329 357c11 12 28 19 46 19 15 0 29-6 37-17 4-6 9-16 5-28l-89-291-24-76h80 249c24 0 47-10 60-27 8-8 16-23 11-41z" horiz-adv-x="1118" />

<glyph glyph-name="dislike" unicode="&#xe80d;" d="M842 850h-58-555c-63 0-117-39-129-95l-79-353c-16-73 46-140 129-140h249l-90-291c-18-60 31-121 99-121 34 0 67 14 90 38l344 374h236v588h-236z m-388-922c-11-12-28-19-46-19-15 0-29 6-37 17-4 6-9 16-5 28l89 291 24 76h-80-249c-24 0-47 10-61 27-7 9-14 23-10 42l79 353c6 28 36 48 71 48h555v-506l-330-357z m565 393h-177v470h177v-470z" horiz-adv-x="1118" />

<glyph glyph-name="share" unicode="&#xe80e;" d="M740 704l314-354-314-354v187 56h-56c-220 0-396-56-541-172 102 226 284 356 549 395l48 7v48 187z m-56 146v-333c-432-63-605-352-666-667 154 221 358 333 666 333v-333l445 500-445 500z" horiz-adv-x="1167" />

<glyph glyph-name="comment" unicode="&#xe80f;" d="M103 218h-89v530c0 23 10 45 26 62 17 17 39 26 63 26h706v-88h-706v-530z m397-354c-12 0-23 5-31 13-8 8-13 20-13 31v133h-177c-23 0-46 9-62 26-17 16-26 39-26 62v442c0 23 9 46 26 62 16 17 39 26 62 26h619c23 0 45-9 62-26 17-16 26-39 26-62v-442c0-23-9-46-26-62-17-17-39-26-62-26h-182l-163-164c-9-8-19-13-31-13h-22z m-132 619v-89h441v89h-441z m0-177v-88h353v88h-353z" horiz-adv-x="1000" />

<glyph glyph-name="arrow-right" unicode="&#xe810;" d="M70-131l-55 54 433 433-440 440 54 54 494-494-486-487z" horiz-adv-x="568" />

<glyph glyph-name="dots" unicode="&#xe811;" d="M125 110c32 0 62-12 85-35 22-22 35-53 35-84 0-32-13-63-35-85-23-23-53-35-85-35-32 0-62 12-85 35-22 22-35 53-35 85 0 31 13 62 35 84 23 23 53 35 85 35z m0 360c32 0 62-13 85-35 22-23 35-53 35-85 0-32-13-62-35-85-23-22-53-35-85-35-32 0-62 13-85 35-22 23-35 53-35 85 0 32 13 62 35 85 23 22 53 35 85 35z m0 359c32 0 62-12 85-35 22-22 35-53 35-85 0-31-13-62-35-84-23-23-53-35-85-35-32 0-62 12-85 35-22 22-35 53-35 84 0 32 13 63 35 85 23 23 53 35 85 35z" horiz-adv-x="250" />

<glyph glyph-name="search" unicode="&#xe814;" d="M371 850c99 0 193-39 263-109 70-69 109-164 109-262 0-92-34-177-89-242l15-16h45l286-285-86-86-285 286v45l-16 15c-65-55-150-89-242-89-98 0-193 39-262 109-70 70-109 164-109 263 0 98 39 193 109 262 69 70 164 109 262 109z m0-114c-142 0-257-115-257-257 0-143 115-258 257-258 143 0 258 115 258 258 0 142-115 257-258 257z" horiz-adv-x="1000" />

<glyph glyph-name="burger-1" unicode="&#xe815;" d="M792 308h-667v84h667l-167 166 58 59 267-267-267-267-58 59 167 166z m-667 292h417v-83h-417v83z m417-417v-83h-417v83h417z" horiz-adv-x="1000" />

<glyph glyph-name="burger-3" unicode="&#xe816;" d="M125 600h750v-83h-750v83z m0-208h750v-84h-750v84z m0-209h750v-83h-750v83z" horiz-adv-x="1000" />

<glyph glyph-name="burger-2" unicode="&#xe817;" d="M208 308h667v84h-667l167 166-58 59-267-267 267-267 58 59-167 166z m667 292h-417v-83h417v83z m-417-417v-83h417v83h-417z" horiz-adv-x="1000" />
</font>
</defs>
</svg>
