<svg width="46" height="42" viewBox="0 0 46 42" fill="none" xmlns="http://www.w3.org/2000/svg">
<rect width="46" height="42" rx="21" fill="#0B0B0E"/>
<path d="M23 31.2857C20.8903 31.2857 18.828 30.6601 17.0739 29.488C15.3198 28.316 13.9526 26.6501 13.1453 24.701C12.3379 22.7519 12.1267 20.6072 12.5383 18.5381C12.9499 16.4689 13.9658 14.5683 15.4575 13.0766C16.9493 11.5848 18.8499 10.5689 20.919 10.1573C22.9882 9.74575 25.1329 9.95699 27.082 10.7643C29.031 11.5717 30.6969 12.9388 31.869 14.693C33.0411 16.4471 33.6667 18.5094 33.6667 20.619C33.6667 23.448 32.5429 26.1611 30.5425 28.1615C28.5421 30.1619 25.829 31.2857 23 31.2857ZM23 7.28571C20.3629 7.28571 17.785 8.06769 15.5924 9.53278C13.3997 10.9979 11.6908 13.0802 10.6816 15.5166C9.67243 17.9529 9.40839 20.6338 9.92286 23.2202C10.4373 25.8067 11.7072 28.1824 13.5719 30.0471C15.4366 31.9118 17.8124 33.1817 20.3988 33.6962C22.9852 34.2106 25.6661 33.9466 28.1024 32.9374C30.5388 31.9283 32.6212 30.2193 34.0863 28.0266C35.5513 25.834 36.3333 23.2561 36.3333 20.619C36.3333 18.8681 35.9885 17.1343 35.3184 15.5166C34.6483 13.8989 33.6662 12.4291 32.4281 11.1909C31.19 9.95283 29.7201 8.97071 28.1024 8.30065C26.4848 7.63058 24.751 7.28571 23 7.28571Z" fill="#F1F1F1"/>
</svg>
