<svg width="16" height="4" viewBox="0 0 16 4" fill="none" xmlns="http://www.w3.org/2000/svg">
<path d="M3.92999 2C3.92999 2.83 3.25999 3.5 2.42999 3.5C1.59999 3.5 0.929993 2.83 0.929993 2C0.929993 1.17 1.59999 0.5 2.42999 0.5C3.25999 0.5 3.92999 1.17 3.92999 2ZM8.42999 0.5C7.59999 0.5 6.92999 1.17 6.92999 2C6.92999 2.83 7.59999 3.5 8.42999 3.5C9.25999 3.5 9.92999 2.83 9.92999 2C9.92999 1.17 9.25999 0.5 8.42999 0.5ZM14.43 0.5C13.6 0.5 12.93 1.17 12.93 2C12.93 2.83 13.6 3.5 14.43 3.5C15.26 3.5 15.93 2.83 15.93 2C15.93 1.17 15.26 0.5 14.43 0.5Z" fill="#0B0B0E"/>
</svg>
