<svg width="46" height="42" viewBox="0 0 46 42" fill="none" xmlns="http://www.w3.org/2000/svg">
<rect width="46" height="42" rx="21" fill="#F1F1F1"/>
<path d="M23 7.66664C21.6431 7.66449 20.2939 7.87136 19 8.27998C21.7072 9.13075 24.0724 10.8231 25.7515 13.1108C27.4305 15.3985 28.3359 18.1622 28.3359 21C28.3359 23.8377 27.4305 26.6015 25.7515 28.8892C24.0724 31.1769 21.7072 32.8692 19 33.72C20.8334 34.2962 22.7697 34.4692 24.6762 34.2272C26.5828 33.9852 28.4144 33.334 30.0458 32.318C31.6771 31.3021 33.0696 29.9455 34.1277 28.3413C35.1859 26.737 35.8847 24.9229 36.1763 23.0233C36.468 21.1238 36.3455 19.1836 35.8174 17.3358C35.2893 15.488 34.3679 13.7762 33.1165 12.3177C31.865 10.8591 30.3131 9.68838 28.567 8.8856C26.8208 8.08283 24.9218 7.66701 23 7.66664Z" fill="#0B0B0E"/>
</svg>
